<svg xmlns="http://www.w3.org/2000/svg" xmlns:xlink="http://www.w3.org/1999/xlink" width="500" zoomAndPan="magnify" viewBox="0 0 375 374.999991" height="500" preserveAspectRatio="xMidYMid meet" version="1.0"><defs><g><g id="id1"/></g><clipPath id="id2"><path d="M 127.226562 100.503906 L 205 100.503906 L 205 201.753906 L 127.226562 201.753906 Z M 127.226562 100.503906 " clip-rule="nonzero"/></clipPath><clipPath id="id3"><path d="M 154 100.503906 L 247.976562 100.503906 L 247.976562 185 L 154 185 Z M 154 100.503906 " clip-rule="nonzero"/></clipPath></defs><g clip-path="url(#id2)"><path fill="rgb(23.529053%, 53.329468%, 49.409485%)" d="M 151.328125 141.066406 C 155.765625 138.425781 161.136719 137.484375 166.28125 138.0625 C 172.042969 138.714844 178.1875 141.132812 182.378906 145.183594 C 185.652344 148.363281 187.902344 152.65625 188.222656 157.183594 C 187.082031 154.101562 183.820312 152.191406 180.746094 151.304688 C 176.746094 150.15625 172.207031 150.691406 168.996094 153.496094 C 160.015625 161.332031 165.644531 176.402344 171.671875 184.140625 C 174.777344 188.128906 179.066406 191.976562 183.808594 193.875 C 183.421875 193.875 183.03125 193.867188 182.640625 193.855469 C 181.527344 193.8125 180.253906 193.539062 178.859375 193.058594 L 187.601562 201.753906 L 195.714844 193.683594 C 195.199219 193.78125 194.707031 193.835938 194.246094 193.855469 C 193.855469 193.867188 193.464844 193.875 193.078125 193.875 C 195.1875 193.027344 197.207031 191.796875 199.074219 190.339844 L 204.53125 184.914062 C 202.203125 174.164062 198.332031 163.402344 192.914062 152.632812 C 191.027344 153.6875 189.402344 155.191406 188.664062 157.183594 C 188.859375 154.414062 189.777344 151.730469 191.207031 149.339844 C 188.183594 143.65625 184.730469 137.972656 180.84375 132.28125 C 179.835938 135.535156 176.789062 137.898438 173.191406 137.898438 C 168.769531 137.898438 165.183594 134.335938 165.183594 129.929688 C 165.183594 125.535156 168.769531 121.972656 173.191406 121.972656 C 173.238281 121.972656 173.285156 121.972656 173.332031 121.972656 C 167.808594 114.835938 161.613281 107.699219 154.734375 100.554688 C 147.820312 100.957031 141.019531 103.769531 135.765625 109 C 124.378906 120.324219 124.378906 138.859375 135.765625 150.1875 L 145.960938 160.332031 C 143.066406 152.707031 143.808594 145.546875 151.324219 141.066406 Z M 151.328125 141.066406 " fill-opacity="1" fill-rule="evenodd"/></g><g clip-path="url(#id3)"><path fill="rgb(43.528748%, 74.119568%, 70.199585%)" d="M 207.894531 153.496094 C 204.679688 150.691406 200.140625 150.15625 196.140625 151.304688 C 195.054688 151.617188 193.945312 152.058594 192.914062 152.632812 C 198.332031 163.402344 202.207031 174.164062 204.53125 184.914062 L 204.878906 184.566406 C 204.992188 184.425781 205.105469 184.28125 205.214844 184.140625 C 211.246094 176.402344 216.871094 161.332031 207.894531 153.496094 Z M 203.695312 121.972656 C 208.117188 121.972656 211.703125 125.535156 211.703125 129.929688 C 211.703125 134.335938 208.117188 137.898438 203.695312 137.898438 C 199.273438 137.898438 195.6875 134.335938 195.6875 129.929688 C 195.6875 125.535156 199.273438 121.972656 203.695312 121.972656 Z M 181.199219 129.929688 C 181.199219 130.75 181.074219 131.539062 180.84375 132.28125 C 184.730469 137.972656 188.183594 143.65625 191.210938 149.339844 C 192.121094 147.820312 193.234375 146.417969 194.507812 145.183594 C 198.699219 141.132812 204.84375 138.710938 210.609375 138.058594 C 215.75 137.484375 221.121094 138.425781 225.558594 141.066406 C 232.253906 145.054688 233.574219 151.171875 231.742188 157.84375 L 239.4375 150.1875 C 250.824219 138.859375 250.824219 120.324219 239.4375 109 C 228.050781 97.671875 209.421875 97.671875 198.035156 109 L 187.601562 119.375 L 177.171875 109 C 171.039062 102.898438 162.808594 100.085938 154.738281 100.554688 C 161.613281 107.699219 167.8125 114.835938 173.332031 121.972656 C 177.6875 122.046875 181.199219 125.582031 181.199219 129.929688 Z M 181.199219 129.929688 " fill-opacity="1" fill-rule="evenodd"/></g><g fill="rgb(81.568909%, 73.728943%, 83.529663%)" fill-opacity="1"><g transform="translate(104.880063, 231.686087)"><g><path d="M 15.34375 -22.5625 C 17.0625 -22.5625 18.566406 -22.316406 19.859375 -21.828125 C 21.160156 -21.335938 22.171875 -20.660156 22.890625 -19.796875 C 23.609375 -18.941406 23.96875 -17.992188 23.96875 -16.953125 C 23.96875 -15.828125 23.578125 -14.894531 22.796875 -14.15625 C 22.023438 -13.425781 20.976562 -13.0625 19.65625 -13.0625 C 18.300781 -13.0625 17.242188 -13.40625 16.484375 -14.09375 C 15.722656 -14.78125 15.34375 -15.71875 15.34375 -16.90625 C 15.34375 -17.46875 15.425781 -18.0625 15.59375 -18.6875 C 14.414062 -18.375 13.367188 -17.757812 12.453125 -16.84375 C 11.535156 -15.925781 10.921875 -14.722656 10.609375 -13.234375 C 10.441406 -12.390625 10.359375 -11.628906 10.359375 -10.953125 C 10.359375 -9.429688 10.78125 -8.273438 11.625 -7.484375 C 12.46875 -6.691406 13.679688 -6.296875 15.265625 -6.296875 C 16.160156 -6.296875 16.929688 -6.382812 17.578125 -6.5625 C 18.222656 -6.75 18.882812 -7 19.5625 -7.3125 C 20.132812 -7.59375 20.546875 -7.734375 20.796875 -7.734375 C 20.960938 -7.734375 21.070312 -7.695312 21.125 -7.625 C 21.1875 -7.550781 21.21875 -7.40625 21.21875 -7.1875 C 21.25 -6.144531 20.816406 -5.050781 19.921875 -3.90625 C 19.035156 -2.769531 17.8125 -1.8125 16.25 -1.03125 C 14.6875 -0.257812 12.929688 0.125 10.984375 0.125 C 8.960938 0.125 7.164062 -0.242188 5.59375 -0.984375 C 4.03125 -1.734375 2.816406 -2.804688 1.953125 -4.203125 C 1.097656 -5.597656 0.671875 -7.226562 0.671875 -9.09375 C 0.671875 -9.957031 0.785156 -10.925781 1.015625 -12 C 1.773438 -15.5 3.457031 -18.132812 6.0625 -19.90625 C 8.664062 -21.675781 11.757812 -22.5625 15.34375 -22.5625 Z M 15.34375 -22.5625 "/></g></g></g><g fill="rgb(81.568909%, 73.728943%, 83.529663%)" fill-opacity="1"><g transform="translate(126.727185, 231.686087)"><g><path d="M 25.90625 -5.828125 C 25.851562 -5.710938 25.828125 -5.546875 25.828125 -5.328125 C 25.828125 -5.128906 25.875 -4.972656 25.96875 -4.859375 C 26.070312 -4.742188 26.207031 -4.6875 26.375 -4.6875 C 26.707031 -4.6875 26.992188 -4.832031 27.234375 -5.125 C 27.472656 -5.425781 27.632812 -5.578125 27.71875 -5.578125 C 27.863281 -5.578125 27.976562 -5.484375 28.0625 -5.296875 C 28.144531 -5.117188 28.1875 -4.90625 28.1875 -4.65625 C 28.21875 -3.832031 27.953125 -3.03125 27.390625 -2.25 C 26.828125 -1.476562 26 -0.847656 24.90625 -0.359375 C 23.820312 0.128906 22.519531 0.375 21 0.375 C 19.144531 0.375 17.664062 -0.0507812 16.5625 -0.90625 C 15.46875 -1.769531 14.90625 -2.921875 14.875 -4.359375 C 14.875 -5.398438 15.128906 -6.566406 15.640625 -7.859375 L 17.96875 -13.953125 C 18.101562 -14.316406 18.171875 -14.609375 18.171875 -14.828125 C 18.171875 -15.203125 18.050781 -15.492188 17.8125 -15.703125 C 17.570312 -15.910156 17.285156 -16.015625 16.953125 -16.015625 C 16.410156 -16.015625 15.863281 -15.769531 15.3125 -15.28125 C 14.769531 -14.789062 14.328125 -13.992188 13.984375 -12.890625 L 13.984375 -12.96875 L 11.328125 -4.390625 C 11.242188 -4.054688 11.203125 -3.765625 11.203125 -3.515625 C 11.203125 -3.140625 11.269531 -2.847656 11.40625 -2.640625 C 11.550781 -2.429688 11.75 -2.226562 12 -2.03125 C 12.195312 -1.832031 12.335938 -1.671875 12.421875 -1.546875 C 12.503906 -1.421875 12.519531 -1.257812 12.46875 -1.0625 C 12.320312 -0.6875 12.035156 -0.414062 11.609375 -0.25 C 11.191406 -0.0820312 10.546875 0 9.671875 0 L 0.046875 0 C -0.691406 0 -1.226562 -0.117188 -1.5625 -0.359375 C -1.90625 -0.597656 -2.019531 -0.914062 -1.90625 -1.3125 C -1.789062 -1.644531 -1.492188 -1.941406 -1.015625 -2.203125 C -0.585938 -2.421875 -0.234375 -2.6875 0.046875 -3 C 0.328125 -3.3125 0.566406 -3.804688 0.765625 -4.484375 L 7.1875 -25.578125 C 7.269531 -25.828125 7.3125 -26.035156 7.3125 -26.203125 C 7.3125 -26.515625 7.234375 -26.769531 7.078125 -26.96875 C 6.921875 -27.164062 6.71875 -27.363281 6.46875 -27.5625 C 6.1875 -27.78125 5.976562 -27.972656 5.84375 -28.140625 C 5.71875 -28.316406 5.703125 -28.546875 5.796875 -28.828125 C 5.960938 -29.472656 6.847656 -30.035156 8.453125 -30.515625 C 10.054688 -30.992188 11.734375 -31.234375 13.484375 -31.234375 C 15.117188 -31.234375 16.320312 -30.921875 17.09375 -30.296875 C 17.875 -29.679688 18.265625 -28.835938 18.265625 -27.765625 C 18.265625 -27.148438 18.164062 -26.546875 17.96875 -25.953125 L 15.6875 -18.515625 C 16.78125 -19.953125 17.9375 -20.953125 19.15625 -21.515625 C 20.382812 -22.078125 21.71875 -22.359375 23.15625 -22.359375 C 24.875 -22.359375 26.257812 -21.835938 27.3125 -20.796875 C 28.375 -19.753906 28.90625 -18.398438 28.90625 -16.734375 C 28.90625 -15.859375 28.765625 -15 28.484375 -14.15625 Z M 25.90625 -5.828125 "/></g></g></g><g fill="rgb(81.568909%, 73.728943%, 83.529663%)" fill-opacity="1"><g transform="translate(155.673626, 231.686087)"><g><path d="M 14.328125 -22.5625 C 17.910156 -22.5625 20.503906 -21.988281 22.109375 -20.84375 C 23.710938 -19.707031 24.515625 -18.253906 24.515625 -16.484375 C 24.515625 -15.953125 24.457031 -15.457031 24.34375 -15 C 23.925781 -13.144531 22.75 -11.816406 20.8125 -11.015625 C 18.882812 -10.210938 16.609375 -9.8125 13.984375 -9.8125 C 12.660156 -9.8125 11.421875 -9.894531 10.265625 -10.0625 C 10.242188 -8.59375 10.640625 -7.5625 11.453125 -6.96875 C 12.273438 -6.382812 13.414062 -6.09375 14.875 -6.09375 C 15.550781 -6.09375 16.195312 -6.164062 16.8125 -6.3125 C 17.4375 -6.46875 18.226562 -6.703125 19.1875 -7.015625 C 19.976562 -7.296875 20.515625 -7.4375 20.796875 -7.4375 C 21.109375 -7.4375 21.265625 -7.253906 21.265625 -6.890625 C 21.285156 -5.898438 20.914062 -4.863281 20.15625 -3.78125 C 19.394531 -2.695312 18.269531 -1.773438 16.78125 -1.015625 C 15.289062 -0.253906 13.488281 0.125 11.375 0.125 C 8.238281 0.125 5.671875 -0.660156 3.671875 -2.234375 C 1.671875 -3.816406 0.671875 -6.113281 0.671875 -9.125 C 0.671875 -9.96875 0.785156 -10.957031 1.015625 -12.09375 C 1.722656 -15.550781 3.265625 -18.160156 5.640625 -19.921875 C 8.023438 -21.679688 10.921875 -22.5625 14.328125 -22.5625 Z M 10.5625 -12.59375 C 10.675781 -12.5625 10.832031 -12.546875 11.03125 -12.546875 C 12.21875 -12.546875 13.117188 -13.09375 13.734375 -14.1875 C 14.359375 -15.289062 14.65625 -16.519531 14.625 -17.875 C 14.59375 -18.664062 14.367188 -19.0625 13.953125 -19.0625 C 13.640625 -19.0625 13.269531 -18.8125 12.84375 -18.3125 C 12.425781 -17.820312 12.007812 -17.082031 11.59375 -16.09375 C 11.1875 -15.113281 10.84375 -13.945312 10.5625 -12.59375 Z M 10.5625 -12.59375 "/></g></g></g><g fill="rgb(81.568909%, 73.728943%, 83.529663%)" fill-opacity="1"><g transform="translate(178.281387, 231.686087)"><g><path d="M 20.75 -22.359375 C 22.332031 -22.359375 23.59375 -21.878906 24.53125 -20.921875 C 25.476562 -19.960938 25.953125 -18.78125 25.953125 -17.375 C 25.953125 -16.832031 25.894531 -16.335938 25.78125 -15.890625 C 25.5 -14.734375 24.960938 -13.84375 24.171875 -13.21875 C 23.390625 -12.601562 22.445312 -12.296875 21.34375 -12.296875 C 20.269531 -12.296875 19.457031 -12.550781 18.90625 -13.0625 C 18.363281 -13.570312 17.878906 -14.25 17.453125 -15.09375 C 17.234375 -15.570312 17.023438 -15.921875 16.828125 -16.140625 C 16.628906 -16.367188 16.398438 -16.484375 16.140625 -16.484375 C 15.859375 -16.484375 15.613281 -16.367188 15.40625 -16.140625 C 15.195312 -15.921875 15.003906 -15.53125 14.828125 -14.96875 L 11.578125 -4.390625 C 11.523438 -4.253906 11.5 -4.046875 11.5 -3.765625 C 11.5 -3.398438 11.601562 -3.097656 11.8125 -2.859375 C 12.019531 -2.617188 12.3125 -2.382812 12.6875 -2.15625 C 13.019531 -1.925781 13.242188 -1.738281 13.359375 -1.59375 C 13.472656 -1.457031 13.515625 -1.28125 13.484375 -1.0625 C 13.421875 -0.6875 13.210938 -0.414062 12.859375 -0.25 C 12.515625 -0.0820312 11.921875 0 11.078125 0 L 0.25 0 C -0.476562 0 -1.003906 -0.117188 -1.328125 -0.359375 C -1.648438 -0.597656 -1.769531 -0.914062 -1.6875 -1.3125 C -1.570312 -1.644531 -1.273438 -1.941406 -0.796875 -2.203125 C -0.378906 -2.421875 -0.03125 -2.6875 0.25 -3 C 0.53125 -3.3125 0.769531 -3.804688 0.96875 -4.484375 L 4.734375 -16.6875 C 4.785156 -16.832031 4.8125 -17.03125 4.8125 -17.28125 C 4.8125 -17.59375 4.75 -17.832031 4.625 -18 C 4.5 -18.175781 4.296875 -18.390625 4.015625 -18.640625 C 3.734375 -18.867188 3.535156 -19.066406 3.421875 -19.234375 C 3.304688 -19.398438 3.289062 -19.625 3.375 -19.90625 C 3.550781 -20.550781 4.441406 -21.117188 6.046875 -21.609375 C 7.648438 -22.109375 9.328125 -22.359375 11.078125 -22.359375 C 12.234375 -22.359375 13.191406 -22.097656 13.953125 -21.578125 C 14.710938 -21.054688 15.203125 -20.316406 15.421875 -19.359375 C 16.773438 -21.359375 18.550781 -22.359375 20.75 -22.359375 Z M 20.75 -22.359375 "/></g></g></g><g fill="rgb(81.568909%, 73.728943%, 83.529663%)" fill-opacity="1"><g transform="translate(201.69206, 231.686087)"><g><path d="M 11.109375 -22.359375 C 12.742188 -22.359375 13.941406 -22.046875 14.703125 -21.421875 C 15.460938 -20.804688 15.84375 -19.960938 15.84375 -18.890625 C 15.84375 -18.242188 15.742188 -17.625 15.546875 -17.03125 L 11.65625 -4.390625 C 11.570312 -4.054688 11.53125 -3.765625 11.53125 -3.515625 C 11.53125 -3.140625 11.597656 -2.847656 11.734375 -2.640625 C 11.878906 -2.429688 12.082031 -2.226562 12.34375 -2.03125 C 12.539062 -1.832031 12.679688 -1.671875 12.765625 -1.546875 C 12.847656 -1.421875 12.863281 -1.257812 12.8125 -1.0625 C 12.664062 -0.6875 12.378906 -0.414062 11.953125 -0.25 C 11.535156 -0.0820312 10.890625 0 10.015625 0 L 0.375 0 C -0.351562 0 -0.882812 -0.117188 -1.21875 -0.359375 C -1.5625 -0.597656 -1.675781 -0.914062 -1.5625 -1.3125 C -1.445312 -1.644531 -1.148438 -1.941406 -0.671875 -2.203125 C -0.253906 -2.421875 0.09375 -2.6875 0.375 -3 C 0.65625 -3.3125 0.894531 -3.804688 1.09375 -4.484375 L 4.78125 -16.6875 C 4.863281 -16.945312 4.90625 -17.160156 4.90625 -17.328125 C 4.90625 -17.640625 4.832031 -17.882812 4.6875 -18.0625 C 4.550781 -18.25 4.34375 -18.441406 4.0625 -18.640625 C 3.78125 -18.867188 3.582031 -19.066406 3.46875 -19.234375 C 3.351562 -19.398438 3.335938 -19.625 3.421875 -19.90625 C 3.585938 -20.550781 4.472656 -21.117188 6.078125 -21.609375 C 7.691406 -22.109375 9.367188 -22.359375 11.109375 -22.359375 Z M 13.953125 -31.703125 C 15.046875 -31.703125 15.957031 -31.34375 16.6875 -30.625 C 17.425781 -29.90625 17.796875 -29.023438 17.796875 -27.984375 C 17.796875 -27.242188 17.601562 -26.519531 17.21875 -25.8125 C 16.84375 -25.113281 16.304688 -24.546875 15.609375 -24.109375 C 14.921875 -23.671875 14.15625 -23.453125 13.3125 -23.453125 C 12.238281 -23.453125 11.34375 -23.8125 10.625 -24.53125 C 9.90625 -25.25 9.535156 -26.144531 9.515625 -27.21875 C 9.515625 -27.925781 9.695312 -28.625 10.0625 -29.3125 C 10.425781 -30 10.945312 -30.566406 11.625 -31.015625 C 12.300781 -31.472656 13.078125 -31.703125 13.953125 -31.703125 Z M 13.953125 -31.703125 "/></g></g></g><g fill="rgb(81.568909%, 73.728943%, 83.529663%)" fill-opacity="1"><g transform="translate(216.101807, 231.686087)"><g><path d="M 13.90625 -22.734375 C 16.238281 -22.734375 18.257812 -22.519531 19.96875 -22.09375 C 21.675781 -21.675781 22.988281 -21.085938 23.90625 -20.328125 C 24.820312 -19.566406 25.28125 -18.707031 25.28125 -17.75 C 25.28125 -16.757812 24.890625 -15.953125 24.109375 -15.328125 C 23.335938 -14.710938 22.257812 -14.40625 20.875 -14.40625 C 19.46875 -14.40625 18.273438 -14.757812 17.296875 -15.46875 C 16.328125 -16.175781 15.84375 -17.0625 15.84375 -18.125 C 15.84375 -18.5 15.898438 -18.851562 16.015625 -19.1875 C 15.515625 -19.332031 15.066406 -19.40625 14.671875 -19.40625 C 13.960938 -19.40625 13.375 -19.234375 12.90625 -18.890625 C 12.445312 -18.554688 12.226562 -18.078125 12.25 -17.453125 C 12.25 -16.722656 12.613281 -16.101562 13.34375 -15.59375 C 14.082031 -15.082031 15.269531 -14.445312 16.90625 -13.6875 C 18.3125 -13.070312 19.472656 -12.503906 20.390625 -11.984375 C 21.304688 -11.460938 22.082031 -10.804688 22.71875 -10.015625 C 23.351562 -9.222656 23.671875 -8.296875 23.671875 -7.234375 C 23.671875 -7.003906 23.613281 -6.578125 23.5 -5.953125 C 23.050781 -4.066406 21.796875 -2.570312 19.734375 -1.46875 C 17.679688 -0.375 14.976562 0.171875 11.625 0.171875 C 7.84375 0.171875 4.847656 -0.332031 2.640625 -1.34375 C 0.429688 -2.363281 -0.671875 -3.757812 -0.671875 -5.53125 C -0.671875 -6.75 -0.304688 -7.664062 0.421875 -8.28125 C 1.148438 -8.90625 2.125 -9.21875 3.34375 -9.21875 C 4.75 -9.21875 5.953125 -8.78125 6.953125 -7.90625 C 7.953125 -7.03125 8.453125 -5.914062 8.453125 -4.5625 C 8.453125 -4.195312 8.410156 -3.816406 8.328125 -3.421875 C 9.003906 -3.253906 9.648438 -3.171875 10.265625 -3.171875 C 11.003906 -3.171875 11.613281 -3.367188 12.09375 -3.765625 C 12.570312 -4.160156 12.8125 -4.707031 12.8125 -5.40625 C 12.78125 -6.050781 12.453125 -6.609375 11.828125 -7.078125 C 11.210938 -7.546875 10.226562 -8.101562 8.875 -8.75 C 7.601562 -9.34375 6.554688 -9.898438 5.734375 -10.421875 C 4.921875 -10.941406 4.226562 -11.59375 3.65625 -12.375 C 3.082031 -13.164062 2.796875 -14.097656 2.796875 -15.171875 C 2.796875 -17.484375 3.757812 -19.320312 5.6875 -20.6875 C 7.613281 -22.050781 10.351562 -22.734375 13.90625 -22.734375 Z M 13.90625 -22.734375 "/></g></g></g><g fill="rgb(81.568909%, 73.728943%, 83.529663%)" fill-opacity="1"><g transform="translate(240.104083, 231.686087)"><g><path d="M 25.90625 -5.828125 C 25.851562 -5.710938 25.828125 -5.546875 25.828125 -5.328125 C 25.828125 -5.128906 25.875 -4.972656 25.96875 -4.859375 C 26.070312 -4.742188 26.207031 -4.6875 26.375 -4.6875 C 26.707031 -4.6875 26.992188 -4.832031 27.234375 -5.125 C 27.472656 -5.425781 27.632812 -5.578125 27.71875 -5.578125 C 27.863281 -5.578125 27.976562 -5.484375 28.0625 -5.296875 C 28.144531 -5.117188 28.1875 -4.90625 28.1875 -4.65625 C 28.21875 -3.832031 27.953125 -3.03125 27.390625 -2.25 C 26.828125 -1.476562 26 -0.847656 24.90625 -0.359375 C 23.820312 0.128906 22.519531 0.375 21 0.375 C 19.144531 0.375 17.664062 -0.0507812 16.5625 -0.90625 C 15.46875 -1.769531 14.90625 -2.921875 14.875 -4.359375 C 14.875 -5.398438 15.128906 -6.566406 15.640625 -7.859375 L 17.96875 -13.953125 C 18.101562 -14.316406 18.171875 -14.609375 18.171875 -14.828125 C 18.171875 -15.203125 18.050781 -15.492188 17.8125 -15.703125 C 17.570312 -15.910156 17.285156 -16.015625 16.953125 -16.015625 C 16.410156 -16.015625 15.863281 -15.769531 15.3125 -15.28125 C 14.769531 -14.789062 14.328125 -13.992188 13.984375 -12.890625 L 13.984375 -12.96875 L 11.328125 -4.390625 C 11.242188 -4.054688 11.203125 -3.765625 11.203125 -3.515625 C 11.203125 -3.140625 11.269531 -2.847656 11.40625 -2.640625 C 11.550781 -2.429688 11.75 -2.226562 12 -2.03125 C 12.195312 -1.832031 12.335938 -1.671875 12.421875 -1.546875 C 12.503906 -1.421875 12.519531 -1.257812 12.46875 -1.0625 C 12.320312 -0.6875 12.035156 -0.414062 11.609375 -0.25 C 11.191406 -0.0820312 10.546875 0 9.671875 0 L 0.046875 0 C -0.691406 0 -1.226562 -0.117188 -1.5625 -0.359375 C -1.90625 -0.597656 -2.019531 -0.914062 -1.90625 -1.3125 C -1.789062 -1.644531 -1.492188 -1.941406 -1.015625 -2.203125 C -0.585938 -2.421875 -0.234375 -2.6875 0.046875 -3 C 0.328125 -3.3125 0.566406 -3.804688 0.765625 -4.484375 L 7.1875 -25.578125 C 7.269531 -25.828125 7.3125 -26.035156 7.3125 -26.203125 C 7.3125 -26.515625 7.234375 -26.769531 7.078125 -26.96875 C 6.921875 -27.164062 6.71875 -27.363281 6.46875 -27.5625 C 6.1875 -27.78125 5.976562 -27.972656 5.84375 -28.140625 C 5.71875 -28.316406 5.703125 -28.546875 5.796875 -28.828125 C 5.960938 -29.472656 6.847656 -30.035156 8.453125 -30.515625 C 10.054688 -30.992188 11.734375 -31.234375 13.484375 -31.234375 C 15.117188 -31.234375 16.320312 -30.921875 17.09375 -30.296875 C 17.875 -29.679688 18.265625 -28.835938 18.265625 -27.765625 C 18.265625 -27.148438 18.164062 -26.546875 17.96875 -25.953125 L 15.6875 -18.515625 C 16.78125 -19.953125 17.9375 -20.953125 19.15625 -21.515625 C 20.382812 -22.078125 21.71875 -22.359375 23.15625 -22.359375 C 24.875 -22.359375 26.257812 -21.835938 27.3125 -20.796875 C 28.375 -19.753906 28.90625 -18.398438 28.90625 -16.734375 C 28.90625 -15.859375 28.765625 -15 28.484375 -14.15625 Z M 25.90625 -5.828125 "/></g></g></g></svg>